<?xml version="1.0"?>
<svg xmlns="http://www.w3.org/2000/svg" height="512px" viewBox="0 0 512 512" width="512px" class="hovered-paths"><g><g id="More"><circle cx="256" cy="258" fill="#acabb1" r="56" data-original="#ACABB1" class="" data-old_color="#acabb1" style="fill:#FFFFFF"/><circle cx="72" cy="258" fill="#e0e0e2" r="56" data-original="#E0E0E2" class="" data-old_color="#e0e0e2" style="fill:#FFFFFF"/><circle cx="440" cy="258" fill="#3e3d42" r="56" data-original="#3E3D42" class="hovered-path active-path" data-old_color="#3e3d42" style="fill:#FFFFFF"/><path d="m256 192a64 64 0 1 0 64 64 64.072 64.072 0 0 0 -64-64zm0 112a48 48 0 1 1 48-48 48.055 48.055 0 0 1 -48 48z" data-original="#000000" class="" style="fill:#000000"/><path d="m72 192a64 64 0 1 0 64 64 64.072 64.072 0 0 0 -64-64zm0 112a48 48 0 1 1 48-48 48.055 48.055 0 0 1 -48 48z" data-original="#000000" class="" style="fill:#000000"/><path d="m440 192a64 64 0 1 0 64 64 64.072 64.072 0 0 0 -64-64zm0 112a48 48 0 1 1 48-48 48.055 48.055 0 0 1 -48 48z" data-original="#000000" class="" style="fill:#000000"/></g></g> </svg>
